<svg width="36" height="36" viewBox="0 0 36 36" fill="none" xmlns="http://www.w3.org/2000/svg">
<path fill-rule="evenodd" clip-rule="evenodd" d="M20.2998 28.3V17.5079H16.9393V14.9079H20.2998V12.6C20.2998 9.8938 22.4936 7.7 25.1998 7.7H26.4998V10.3H25.1998C23.9295 10.3 22.8998 11.3297 22.8998 12.6V14.9079H26.4681V17.5079H22.8998V28.3H20.2998ZM0.5 6C0.5 2.96243 2.96243 0.5 6 0.5H30C33.0376 0.5 35.5 2.96243 35.5 6V30C35.5 33.0376 33.0376 35.5 30 35.5H6C2.96243 35.5 0.5 33.0376 0.5 30V6ZM6.6 3.1C4.667 3.1 3.1 4.667 3.1 6.6V29.4C3.1 31.333 4.667 32.9 6.6 32.9H29.4C31.333 32.9 32.9 31.333 32.9 29.4V6.6C32.9 4.667 31.333 3.1 29.4 3.1H6.6Z" fill="white"/>
</svg>
