<svg width="36" height="36" viewBox="0 0 36 36" fill="none" xmlns="http://www.w3.org/2000/svg">
<path fill-rule="evenodd" clip-rule="evenodd" d="M10.8 0.5H25.2C30.8885 0.5 35.5 5.11147 35.5 10.8V25.2C35.5 30.8885 30.8885 35.5 25.2 35.5H10.8C5.11147 35.5 0.5 30.8885 0.5 25.2V10.8C0.5 5.11147 5.11147 0.5 10.8 0.5ZM10.8 3.1C6.54741 3.1 3.1 6.54741 3.1 10.8V25.2C3.1 29.4526 6.54741 32.9 10.8 32.9H25.2C29.4526 32.9 32.9 29.4526 32.9 25.2V10.8C32.9 6.54741 29.4526 3.1 25.2 3.1H10.8ZM18 26.5C13.3056 26.5 9.5 22.6944 9.5 18C9.5 13.3056 13.3056 9.5 18 9.5C22.6944 9.5 26.5 13.3056 26.5 18C26.5 22.6944 22.6944 26.5 18 26.5ZM18 23.9C21.2585 23.9 23.9 21.2585 23.9 18C23.9 14.7415 21.2585 12.1 18 12.1C14.7415 12.1 12.1 14.7415 12.1 18C12.1 21.2585 14.7415 23.9 18 23.9ZM28.3 9C28.3 9.71797 27.718 10.3 27 10.3C26.282 10.3 25.7 9.71797 25.7 9C25.7 8.28203 26.282 7.7 27 7.7C27.718 7.7 28.3 8.28203 28.3 9Z" fill="white"/>
</svg>
