<svg width="36" height="36" viewBox="0 0 36 36" fill="none" xmlns="http://www.w3.org/2000/svg">
<path fill-rule="evenodd" clip-rule="evenodd" d="M24.4926 18.5035C24.5385 18.4352 24.5891 18.3597 24.6435 18.2782C24.6104 18.3276 24.5789 18.3749 24.5489 18.4196L24.4928 18.5033C24.4927 18.5034 24.4927 18.5034 24.4926 18.5035ZM26.4894 13.9876L26.4823 14.0101L26.4774 14.0331C26.4379 14.2167 26.3115 14.5241 26.1042 14.9285C25.9031 15.3206 25.6461 15.766 25.3746 16.212C24.832 17.1036 24.2458 17.9749 23.9656 18.3912L23.9647 18.3926C23.9124 18.4704 23.8697 18.5339 23.8405 18.5778C23.8262 18.5994 23.8128 18.6197 23.8027 18.6357L23.7933 18.6509C23.7918 18.6533 23.7902 18.6559 23.7887 18.6586C23.7866 18.6622 23.7844 18.6659 23.7822 18.6697L23.7774 18.6785L23.7752 18.682C23.6811 18.8367 23.5424 19.0646 23.5229 19.33C23.4997 19.6458 23.6409 19.9081 23.8132 20.1401C23.9461 20.3221 24.1965 20.5697 24.4319 20.8024L24.432 20.8025L24.4634 20.8336C24.7364 21.1036 25.024 21.3887 25.25 21.6544L25.2542 21.6593C25.691 22.1597 26.0683 22.6088 26.3568 23.0006C26.649 23.3974 26.8193 23.6951 26.8846 23.9011C26.9171 24.0233 26.9102 24.0807 26.9046 24.1009C26.8872 24.1119 26.8208 24.1454 26.6473 24.1454H24.5946C24.4436 24.1454 24.3423 24.11 24.2073 24.0068C24.0413 23.8799 23.8575 23.6767 23.546 23.3268L23.5446 23.3253L23.5429 23.3234C23.2867 23.0356 22.9653 22.6746 22.5381 22.244L22.5321 22.2382C21.3076 21.0443 20.643 20.7501 20.1303 20.7501C19.9282 20.7501 19.5622 20.7598 19.3174 21.059C19.2037 21.1979 19.1524 21.357 19.1261 21.4965C19.0999 21.6358 19.0922 21.791 19.0922 21.9533V23.8217C19.0922 23.9283 19.0824 23.9727 19.0762 23.9902C19.076 23.9907 19.0761 23.9909 19.0762 23.9911C19.0766 23.9916 19.0767 23.9918 19.068 23.9976C19.0016 24.0426 18.7738 24.1253 18.1174 24.1253C16.1444 24.1253 13.8741 22.9116 12.252 20.5455L12.2482 20.54C10.9943 18.7626 10.2003 17.2085 9.72132 16.0403C9.48171 15.456 9.32179 14.9704 9.22255 14.6036C9.11937 14.2224 9.09106 14.0032 9.09106 13.9372C9.09106 13.9096 9.09242 13.8893 9.09412 13.8749C9.12435 13.8659 9.18365 13.8546 9.2886 13.8546H11.3613C11.5449 13.8546 11.5855 13.8919 11.6011 13.9063C11.6421 13.9439 11.7096 14.0412 11.8053 14.3209C12.3254 15.8321 13.0192 17.2531 13.678 18.3038C14.0065 18.8276 14.335 19.2736 14.6385 19.5952C14.7897 19.7555 14.9461 19.8971 15.1038 20.0022C15.2521 20.1009 15.4544 20.2032 15.686 20.2032C15.7831 20.2032 15.9208 20.1931 16.0614 20.1291C16.2158 20.0589 16.3322 19.9433 16.4104 19.8013C16.5415 19.5635 16.5647 19.2468 16.5647 18.9196V15.8517L16.5639 15.8376C16.5361 15.348 16.436 14.9746 16.2987 14.6744C16.1645 14.3809 16.0029 14.177 15.8906 14.0354L15.8853 14.0287C15.8496 13.9836 15.823 13.9501 15.8001 13.9187C15.7788 13.8898 15.7658 13.8696 15.7575 13.8549C15.7589 13.8548 15.7604 13.8547 15.7621 13.8547C15.7632 13.8546 15.7645 13.8546 15.7657 13.8546H18.9943C19.0274 13.8546 19.0502 13.857 19.0648 13.8594C19.0673 13.8668 19.07 13.8766 19.0729 13.889C19.0838 13.9371 19.0922 14.0104 19.0922 14.118V18.2366C19.0922 18.5186 19.1486 18.7746 19.2806 18.9769C19.4152 19.1831 19.6388 19.3393 19.9111 19.3393C20.1659 19.3393 20.3821 19.2531 20.5893 19.1114C20.7798 18.9813 20.9837 18.7894 21.2227 18.5485L21.2328 18.5384L21.2423 18.5276C22.0185 17.65 22.673 16.5496 23.1287 15.6846C23.3581 15.249 23.5403 14.8669 23.6655 14.593C23.7281 14.456 23.7765 14.3458 23.8096 14.2693C23.8261 14.231 23.8388 14.2011 23.8474 14.1805L23.8564 14.1591C23.9055 14.0553 23.9554 13.9909 24.0079 13.951C24.0539 13.916 24.134 13.8747 24.2956 13.8747H26.3484C26.4264 13.8747 26.4793 13.8818 26.5129 13.8893C26.5095 13.9132 26.5026 13.9457 26.4894 13.9876ZM0.5 6C0.5 2.96243 2.96243 0.5 6 0.5H30C33.0376 0.5 35.5 2.96243 35.5 6V30C35.5 33.0376 33.0376 35.5 30 35.5H6C2.96243 35.5 0.5 33.0376 0.5 30V6ZM6.6 3.1C4.667 3.1 3.1 4.667 3.1 6.6V29.4C3.1 31.333 4.667 32.9 6.6 32.9H29.4C31.333 32.9 32.9 31.333 32.9 29.4V6.6C32.9 4.667 31.333 3.1 29.4 3.1H6.6Z" fill="white"/>
</svg>
