<svg width="237" height="38" viewBox="0 0 237 38" fill="none" xmlns="http://www.w3.org/2000/svg">
<path d="M8.89289 0.424579H0V37.5754H9.26789C15.1608 37.5754 18.2144 34.4972 18.2144 28.7654V25.7402C18.2144 21.8128 16.9822 19 13.8215 17.7793C16.4465 16.5587 17.6251 14.1173 17.6251 10.2961V8.96927C17.6251 3.23743 15.0001 0.424579 8.89289 0.424579ZM8.51789 20.8575C11.1965 20.8575 12.3215 21.919 12.3215 25.3687V28.6061C12.3215 31.3659 11.25 32.2682 9.26789 32.2682H5.89288V20.8575H8.51789ZM8.73217 5.73184C10.8215 5.73184 11.7322 6.89944 11.7322 9.55307V11.6229C11.7322 14.595 10.3929 15.5503 8.19646 15.5503H5.89288V5.73184H8.73217Z" fill="#CDCDCE"/>
<path d="M55.0972 23.7235V29.0307C55.0972 31.6844 53.9186 32.6397 52.0436 32.6397C50.1686 32.6397 48.99 31.6844 48.99 29.0307V8.96927C48.99 6.31564 50.1686 5.30726 52.0436 5.30726C53.9186 5.30726 55.0972 6.31564 55.0972 8.96927V12.9497H60.6686V9.34078C60.6686 3.39665 57.6686 0 51.8829 0C46.0971 0 43.0971 3.39665 43.0971 9.34078V28.6592C43.0971 34.6034 46.0971 38 51.8829 38C57.6686 38 60.6686 34.6034 60.6686 28.6592V23.7235H55.0972Z" fill="#CDCDCE"/>
<path d="M77.6906 37.5754H83.7442L75.5477 16.9832L83.7442 0.424579H77.8513L70.137 16.6117V0.424579H64.2441V37.5754H70.137V26.1648L71.9584 22.7682L77.6906 37.5754Z" fill="#CDCDCE"/>
<path d="M97.2622 37.5754V2.65363H104.869V0.424579H87.1372V2.65363H94.7979V37.5754H97.2622Z" fill="#CDCDCE"/>
<path d="M107.93 28.5C107.93 33.9134 110.448 37.8939 116.127 37.8939C121.913 37.8939 124.431 33.9134 124.431 28.5V9.5C124.431 4.08659 121.913 0.106144 116.127 0.106144C110.448 0.106144 107.93 4.08659 107.93 9.5V28.5ZM110.395 9.34078C110.395 5.30726 112.002 2.33519 116.127 2.33519C120.306 2.33519 121.966 5.30726 121.966 9.34078V28.6592C121.966 32.6927 120.306 35.6648 116.127 35.6648C112.002 35.6648 110.395 32.6927 110.395 28.6592V9.34078Z" fill="#CDCDCE"/>
<path d="M137.402 8.96927C137.402 6.31564 138.581 5.30726 140.456 5.30726C142.331 5.30726 143.509 6.31564 143.509 8.96927V29.0307C143.509 31.6844 142.331 32.6927 140.456 32.6927C138.581 32.6927 137.402 31.6844 137.402 29.0307V8.96927ZM131.509 28.6592C131.509 34.6034 134.67 38 140.456 38C146.241 38 149.402 34.6034 149.402 28.6592V9.34078C149.402 3.39665 146.241 0 140.456 0C134.67 0 131.509 3.39665 131.509 9.34078V28.6592Z" fill="#CDCDCE"/>
<path d="M159.124 5.73184H168.821V0.424579H153.232V37.5754H159.124V22.2374H166.732V16.9302H159.124V5.73184Z" fill="#CDCDCE"/>
<path d="M177.54 5.73184H187.236V0.424579H171.647V37.5754H177.54V22.2374H185.147V16.9302H177.54V5.73184Z" fill="#CDCDCE"/>
<path d="M190.062 37.5754H195.955V0.424579H190.062V37.5754Z" fill="#CDCDCE"/>
<path d="M211.782 23.7235V29.0307C211.782 31.6844 210.603 32.6397 208.728 32.6397C206.853 32.6397 205.674 31.6844 205.674 29.0307V8.96927C205.674 6.31564 206.853 5.30726 208.728 5.30726C210.603 5.30726 211.782 6.31564 211.782 8.96927V12.9497H217.353V9.34078C217.353 3.39665 214.353 0 208.567 0C202.782 0 199.782 3.39665 199.782 9.34078V28.6592C199.782 34.6034 202.782 38 208.567 38C214.353 38 217.353 34.6034 217.353 28.6592V23.7235H211.782Z" fill="#CDCDCE"/>
<path d="M226.821 5.73184H237V0.424579H220.929V37.5754H237V32.2682H226.821V21.3883H234.911V16.081H226.821V5.73184Z" fill="#CDCDCE"/>
<path d="M35.0788 0.665823H26.4538L21.5423 31.0764H27.3694V37.8746H33.7979L33.6275 31.0764H39.9902L35.0788 0.665823ZM30.4716 7.24683L33.3109 26.0345H27.6323L30.4716 7.24683Z" fill="#CDCDCE"/>
</svg>
