<svg width="130" height="26" viewBox="0 0 130 26" fill="none" xmlns="http://www.w3.org/2000/svg">
<g clip-path="url(#clip0)">
<path d="M17.1538 13.3755H18.6517C18.717 13.3658 18.7836 13.3718 18.8462 13.393C18.9088 13.4143 18.9657 13.4502 19.0123 13.4979C19.059 13.5456 19.0941 13.6037 19.1149 13.6677C19.1357 13.7317 19.1416 13.7998 19.1321 13.8666V21.161C19.1416 21.2278 19.1357 21.2958 19.1149 21.3598C19.0941 21.4239 19.059 21.482 19.0123 21.5297C18.9657 21.5774 18.9088 21.6133 18.8462 21.6346C18.7836 21.6558 18.717 21.6618 18.6517 21.6521H13.9038C13.8385 21.6618 13.7719 21.6558 13.7093 21.6346C13.6467 21.6133 13.5898 21.5774 13.5432 21.5297C13.4965 21.482 13.4614 21.4239 13.4406 21.3598C13.4198 21.2958 13.4139 21.2278 13.4234 21.161V18.6188H0.472862C0.407429 18.6275 0.340908 18.6205 0.278594 18.5983C0.216281 18.5761 0.159895 18.5394 0.113927 18.491C0.0679582 18.4426 0.0336761 18.3839 0.0138095 18.3196C-0.00605719 18.2552 -0.0109597 18.1871 -0.000507904 18.1205V0.649906C-0.00973783 0.583848 -0.00391893 0.516503 0.0164952 0.453121C0.0369093 0.38974 0.071367 0.332033 0.117182 0.284501C0.162998 0.236968 0.218933 0.200894 0.280628 0.179089C0.342322 0.157285 0.40811 0.15034 0.472862 0.158795H5.41851C5.48381 0.149103 5.55041 0.155123 5.61302 0.176376C5.67564 0.197629 5.73254 0.233528 5.77919 0.281217C5.82584 0.328906 5.86096 0.387068 5.88175 0.451074C5.90254 0.515081 5.90843 0.583164 5.89895 0.649906V13.3755H11.2685V0.649906C11.2595 0.584521 11.2652 0.517898 11.2853 0.455124C11.3053 0.39235 11.3391 0.335086 11.3841 0.287704C11.4291 0.240323 11.4841 0.204078 11.5449 0.181736C11.6056 0.159395 11.6706 0.151548 11.7348 0.158795H16.6805C16.7458 0.149103 16.8124 0.155123 16.875 0.176376C16.9376 0.197629 16.9945 0.233528 17.0411 0.281217C17.0878 0.328906 17.1229 0.387068 17.1437 0.451074C17.1645 0.515081 17.1704 0.583164 17.1609 0.649906L17.1538 13.3755Z" fill="#BFBFBF"/>
<path d="M38.7096 0.158795C38.7749 0.149103 38.8415 0.155123 38.9041 0.176376C38.9667 0.197629 39.0236 0.233528 39.0703 0.281217C39.1169 0.328906 39.152 0.387068 39.1728 0.451074C39.1936 0.515081 39.1995 0.583164 39.19 0.649906V18.8427C39.19 20.6988 39.0628 21.7316 38.427 22.9088C37.6003 24.5699 35.4666 25.4149 31.1639 25.4149C28.9554 25.4598 26.7477 25.2857 24.5721 24.8949C24.4495 24.8821 24.3368 24.8203 24.2587 24.7228C24.1806 24.6254 24.1434 24.5003 24.1552 24.3749V21.356C24.1552 21.031 24.2824 20.8649 24.5721 20.8649H30.5916C32.9797 20.8649 33.6156 20.3738 33.6156 18.5827V18.3516C32.3836 18.645 31.1218 18.7881 29.8569 18.7777C27.0873 18.7777 25.109 18.1566 23.9645 16.8927C22.8199 15.6288 22.2759 13.5416 22.2759 10.6382V0.649906C22.2664 0.583164 22.2723 0.515081 22.2931 0.451074C22.3139 0.387068 22.349 0.328906 22.3956 0.281217C22.4423 0.233528 22.4992 0.197629 22.5618 0.176376C22.6244 0.155123 22.691 0.149103 22.7563 0.158795H27.3416C27.4069 0.149103 27.4735 0.155123 27.5362 0.176376C27.5988 0.197629 27.6557 0.233528 27.7023 0.281217C27.749 0.328906 27.7841 0.387068 27.8049 0.451074C27.8257 0.515081 27.8316 0.583164 27.8221 0.649906V9.37435C27.8221 11.2305 28.0482 12.4366 28.4933 12.9855C28.9384 13.5344 29.9063 13.8305 31.3618 13.8305C32.1199 13.8447 32.8775 13.7794 33.6226 13.6355V0.649906C33.6131 0.583164 33.619 0.515081 33.6398 0.451074C33.6606 0.387068 33.6957 0.328906 33.7424 0.281217C33.789 0.233528 33.8459 0.197629 33.9085 0.176376C33.9712 0.155123 34.0378 0.149103 34.1031 0.158795H38.7096Z" fill="#BFBFBF"/>
<path d="M60.2459 0.158795C60.3112 0.149103 60.3778 0.155123 60.4404 0.176376C60.503 0.197629 60.5599 0.233528 60.6065 0.281217C60.6532 0.328906 60.6883 0.387068 60.7091 0.451074C60.7299 0.515081 60.7358 0.583164 60.7263 0.649906V18.1205C60.7358 18.1872 60.7299 18.2553 60.7091 18.3193C60.6883 18.3833 60.6532 18.4415 60.6065 18.4892C60.5599 18.5368 60.503 18.5727 60.4404 18.594C60.3778 18.6152 60.3112 18.6213 60.2459 18.6116H55.3002C55.236 18.6188 55.171 18.611 55.1102 18.5886C55.0495 18.5663 54.9945 18.53 54.9495 18.4827C54.9045 18.4353 54.8707 18.378 54.8507 18.3152C54.8306 18.2525 54.8249 18.1858 54.8339 18.1205V12.3066H49.323V18.1205C49.3325 18.1872 49.3266 18.2553 49.3058 18.3193C49.285 18.3833 49.2499 18.4415 49.2033 18.4892C49.1566 18.5368 49.0997 18.5727 49.0371 18.594C48.9745 18.6152 48.9079 18.6213 48.8426 18.6116H43.8969C43.8317 18.6213 43.765 18.6152 43.7024 18.594C43.6398 18.5727 43.5829 18.5368 43.5363 18.4892C43.4896 18.4415 43.4545 18.3833 43.4337 18.3193C43.4129 18.2553 43.407 18.1872 43.4165 18.1205V0.649906C43.407 0.583164 43.4129 0.515081 43.4337 0.451074C43.4545 0.387068 43.4896 0.328906 43.5363 0.281217C43.5829 0.233528 43.6398 0.197629 43.7024 0.176376C43.765 0.155123 43.8317 0.149103 43.8969 0.158795H48.8426C48.9079 0.149103 48.9745 0.155123 49.0371 0.176376C49.0997 0.197629 49.1566 0.233528 49.2033 0.281217C49.2499 0.328906 49.285 0.387068 49.3058 0.451074C49.3266 0.515081 49.3325 0.583164 49.323 0.649906V6.96213H54.8339V0.649906C54.8244 0.583164 54.8303 0.515081 54.8511 0.451074C54.8719 0.387068 54.907 0.328906 54.9537 0.281217C55.0003 0.233528 55.0572 0.197629 55.1198 0.176376C55.1824 0.155123 55.249 0.149103 55.3143 0.158795H60.2459Z" fill="#BFBFBF"/>
<path d="M78.6777 1.66109C79.794 2.7372 80.0908 3.94331 80.0908 5.86442V17.0589C80.1171 17.308 80.0479 17.5578 79.8976 17.7558C79.7474 17.9539 79.5279 18.0846 79.2853 18.1205C76.8838 18.6003 74.4409 18.8302 71.994 18.8066C70.3344 18.8854 68.6717 18.7421 67.0484 18.3805C64.9783 17.7955 64.2223 16.5244 64.0527 13.6283V12.7616C64.0527 10.6455 64.625 9.24442 65.706 8.55831C66.787 7.8722 68.5321 7.4822 70.9908 7.4822H74.5234V6.8322C74.5234 5.56109 73.725 4.91109 72.1 4.91109H65.8473C65.494 4.91109 65.4022 4.80998 65.4022 4.41998V1.06886C65.4022 0.678865 65.5011 0.642754 65.8473 0.548865C67.906 0.152294 69.9982 -0.0339932 72.093 -0.00724636C75.4348 -2.4138e-05 77.6321 0.519976 78.6777 1.66109ZM74.5093 10.8983H71.5489C69.8957 10.8983 69.5424 11.3244 69.5424 12.3933V12.7544C69.5424 13.9244 70.0511 14.2494 71.7114 14.2494C72.6599 14.2691 73.6077 14.1819 74.5375 13.9894L74.5093 10.8983Z" fill="#BFBFBF"/>
<path d="M105.272 0.158509C105.324 0.155595 105.377 0.163426 105.427 0.181542C105.476 0.199657 105.522 0.227695 105.56 0.264012C105.599 0.300329 105.631 0.344197 105.653 0.393047C105.675 0.441898 105.687 0.494749 105.689 0.548509L107.695 18.1924C107.695 18.4885 107.596 18.6185 107.314 18.6185H102.439C102.213 18.6185 102.085 18.4885 102.057 18.1924L101.04 8.62295L97.698 17.6435C97.659 17.7674 97.5826 17.8754 97.4798 17.9519C97.3769 18.0285 97.2529 18.0697 97.1257 18.0696H94.0028C93.8756 18.0697 93.7516 18.0285 93.6487 17.9519C93.5459 17.8754 93.4695 17.7674 93.4306 17.6435L90.117 8.62295L89.0643 18.1924C89.0643 18.4885 88.9018 18.6185 88.6827 18.6185H83.8007C83.5134 18.6185 83.3862 18.4885 83.4192 18.2285L85.4681 0.58462C85.4668 0.525163 85.4778 0.4661 85.5006 0.411362C85.5233 0.356624 85.5572 0.307464 85.6 0.267154C85.6428 0.226843 85.6935 0.196306 85.7487 0.177573C85.8039 0.15884 85.8624 0.152341 85.9202 0.158509H89.9333C91.0496 0.158509 91.5583 0.353509 91.8409 1.13351L95.5643 10.573L99.2876 1.0974C99.5773 0.32462 100.051 0.158509 101.195 0.158509H105.272Z" fill="#BFBFBF"/>
<path d="M127.788 0.159292C128.043 0.159292 128.17 0.289292 128.17 0.585403V18.2004C128.17 18.4965 128.043 18.6265 127.788 18.6265H123.076C122.85 18.6265 122.723 18.4965 122.723 18.2004V9.63485L116.449 17.8393C116.246 18.1022 115.984 18.3106 115.685 18.4465C115.386 18.5824 115.058 18.6417 114.732 18.6193H111.581C111.326 18.6193 111.199 18.4893 111.199 18.1932V0.585403C111.199 0.289292 111.326 0.159292 111.581 0.159292H116.3C116.555 0.159292 116.682 0.289292 116.682 0.585403V9.25207L122.829 1.04763C123.017 0.77047 123.268 0.544599 123.561 0.389747C123.854 0.234895 124.18 0.155772 124.51 0.159292H127.788Z" fill="#BFBFBF"/>
</g>
<defs>
<clipPath id="clip0">
<rect width="130" height="26" fill="white"/>
</clipPath>
</defs>
</svg>
