<svg width="161" height="28" viewBox="0 0 161 28" fill="none" xmlns="http://www.w3.org/2000/svg">
<path d="M10.3544 21.2853H0V6.65342H3.61718V18.4402H10.7558L10.3544 21.2853Z" fill="white"/>
<path d="M39.9932 12.4661L39.5919 15.1525H32.4932V18.4402H41.237L40.8358 21.2853H28.876V6.65342H41.0084L40.6071 9.5013H32.4932V12.4661H39.9932Z" fill="white"/>
<path d="M61.5602 21.2853H57.0049L62.4027 13.6687L57.4833 6.65342H61.7887L64.7176 11.4639L67.6835 6.65342H71.9891L67.051 13.6687L72.4675 21.2853H67.8935L64.7176 16.255L61.5602 21.2853Z" fill="white"/>
<path d="M89.3448 10.8431H89.2891V21.2853H85.6719V6.65342H90.7428L94.4157 16.717L98.0701 6.65342H103.162V21.2853H99.5452V10.8431H99.4867L95.641 21.2853H93.1906L89.3448 10.8431Z" fill="white"/>
<path d="M129.032 12.4661L128.631 15.1525H121.533V18.4402H130.257L129.856 21.2853H117.915V6.65342H130.047L129.643 9.5013H121.533V12.4661H129.032Z" fill="white"/>
<path d="M153.622 6.65923H155.037C156.607 6.65923 160.241 7.04062 160.241 10.835C160.241 13.321 158.578 14.1422 157.584 14.4819V14.5208C159.69 15.1221 159.767 16.9873 159.767 18.0674C159.844 19.9521 159.803 20.5117 160.359 21.294H156.678C156.027 20.4114 156.237 19.7712 156.066 17.5664C155.894 15.896 154.116 15.896 153.616 15.896V13.2291H154.113C156.141 13.2291 156.428 12.0877 156.428 11.3862C156.428 9.94418 155.548 9.50154 153.978 9.50154H153.614L153.622 6.65923ZM147.174 6.65923H153.622V9.50434H150.788V13.2319H153.622V15.8988H150.788V21.2912H147.171L147.174 6.65923Z" fill="white"/>
</svg>
