<svg width="80" height="80" viewBox="0 0 80 80" fill="none" xmlns="http://www.w3.org/2000/svg">
<g clip-path="url(#clip0)">
<path d="M40.0013 45.1611C24.3484 45.1611 11.6143 57.8952 11.6143 73.5481V79.9999H68.3883V73.5481C68.3883 57.8952 55.6543 45.1611 40.0013 45.1611ZM51.4258 50.4436C47.7537 58.3843 42.3845 69.8757 40.0723 74.5675L28.5833 50.4398C32.0311 48.7289 35.898 47.7418 40.0013 47.7418C44.107 47.7415 47.9767 48.73 51.4258 50.4436ZM53.3548 52.423L56.5923 66.4513L43.1705 74.121C44.9264 70.5583 47.9509 64.1106 53.3548 52.423ZM37.0656 74.2551L23.41 66.4526L26.6551 52.3932L37.0656 74.2551ZM14.1949 73.5481C14.1949 65.4771 17.924 58.267 23.7433 53.5316L20.4646 67.7405L37.4014 77.4192H14.1949V73.5481ZM65.8077 77.4189H42.6012L59.5391 67.7402L56.2591 53.5313C62.0783 58.2667 65.8074 65.4771 65.8074 73.5479V77.4189H65.8077Z" fill="black"/>
<path d="M56.0895 37.4192H59.3541C61.4882 37.4192 63.2251 35.6823 63.2251 33.5482V29.6772H60.6444V33.5482C60.6444 34.2592 60.0665 34.8385 59.3541 34.8385H57.8508C59.6158 31.7972 60.6444 28.2784 60.6444 24.5161C60.6444 13.1327 51.3825 3.87109 39.9995 3.87109C28.6164 3.87109 19.3545 13.133 19.3545 24.5161C19.3545 35.8991 28.6164 45.161 39.9995 45.161C46.501 45.1613 52.3024 42.1327 56.0895 37.4192ZM21.9346 24.5161C21.9346 14.5548 30.0379 6.45151 39.9992 6.45151C49.9605 6.45151 58.0637 14.5548 58.0637 24.5161C58.0637 28.3535 56.8522 31.9097 54.8032 34.8385H46.2135C45.6795 33.3404 44.2599 32.2579 42.5799 32.2579H37.4185C35.2844 32.2579 33.5475 33.9948 33.5475 36.1289C33.5475 38.263 35.2844 39.9999 37.4185 39.9999H42.5799C44.2599 39.9999 45.6792 38.9174 46.2135 37.4192H52.6187C49.3592 40.6063 44.9078 42.5806 40.0005 42.5806C30.0379 42.5806 21.9346 34.4773 21.9346 24.5161ZM43.8702 36.1289C43.8702 36.8399 43.2922 37.4192 42.5799 37.4192H37.4185C36.7061 37.4192 36.1282 36.8399 36.1282 36.1289C36.1282 35.4179 36.7061 34.8385 37.4185 34.8385H42.5799C43.292 34.8385 43.8702 35.4181 43.8702 36.1289Z" fill="black"/>
<path d="M39.9983 2.58069C49.3234 2.58069 57.6485 8.49156 60.7156 17.289L63.153 16.4401C59.7233 6.60644 50.4189 0 39.9983 0C29.5791 0 20.2746 6.60644 16.8447 16.4387L19.2821 17.289C22.3494 8.49156 30.6746 2.58069 39.9983 2.58069Z" fill="black"/>
<path d="M19.3547 33.5487H18.0644C13.0851 33.5487 9.03223 29.4958 9.03223 24.5165C9.03223 19.5372 13.0851 15.4844 18.0644 15.4844H19.3547V33.5487Z" fill="#323D78"/>
<path d="M61.9349 33.5479H60.6445V15.4834H61.9349C66.9142 15.4834 70.967 19.5363 70.967 24.5155C70.967 29.4948 66.9144 33.5479 61.9349 33.5479Z" fill="#323D78"/>
</g>
<defs>
<clipPath id="clip0">
<rect width="80" height="80" fill="white"/>
</clipPath>
</defs>
</svg>
