<svg width="80" height="80" viewBox="0 0 80 80" fill="none" xmlns="http://www.w3.org/2000/svg">
<path d="M80 9.0332H47.7422V37.4202H80V9.0332Z" fill="#323D78"/>
<path d="M28.3853 5.16113H25.8047V7.74177H28.3853V5.16113Z" fill="black"/>
<path d="M24.5153 5.16113H16.7734V7.74177H24.5153V5.16113Z" fill="black"/>
<path d="M27.0956 72.9028C27.0956 70.4124 25.0699 68.3867 22.5795 68.3867C20.0892 68.3867 18.0635 70.4124 18.0635 72.9028C18.0635 75.3931 20.0892 77.4188 22.5795 77.4188C25.0699 77.4188 27.0956 75.3931 27.0956 72.9028ZM22.5792 74.8382C21.512 74.8382 20.6438 73.9697 20.6438 72.9028C20.6438 71.8358 21.5123 70.9674 22.5792 70.9674C23.6462 70.9674 24.5147 71.8358 24.5147 72.9028C24.5147 73.9697 23.6465 74.8382 22.5792 74.8382Z" fill="black"/>
<path d="M78.3789 47.3574C77.9545 46.422 77.1532 45.6994 76.1776 45.373C75.2048 45.0465 74.1299 45.1445 73.2292 45.635L70.3984 47.182L70.7882 46.0234C71.1559 44.9317 70.9753 43.7213 70.3031 42.7846C69.6307 41.8501 68.5417 41.2902 67.3894 41.2902C65.9132 41.2902 64.6062 42.1754 64.0579 43.5457L62.3793 47.7419H58.3973L58.3262 47.707L61.1172 46.223C62.7971 45.3328 63.6152 43.3649 63.063 41.5467C62.7457 40.4977 62.0308 39.6435 61.0514 39.148C60.0747 38.6526 58.9638 38.5777 57.9276 38.9416L47.3419 42.6552L45.1871 44.0643L45.1613 3.87082C45.161 1.73667 43.4243 0 41.2902 0H3.87109C1.73694 0 0 1.73666 0 3.87109V76.1289C0 78.2631 1.73666 80 3.87082 80H41.2902C43.4243 80 45.161 78.2633 45.161 76.1289V58.0477L56.9287 58.0645L69.9582 55.4579L76.6448 52.2062C78.4461 51.3185 79.2075 49.1882 78.3789 47.3574ZM66.4538 44.5045C66.7285 43.813 67.7726 43.6864 68.2061 44.2903C68.3972 44.5573 68.4487 44.8877 68.343 45.1987L67.4874 47.7419H65.1584L66.4538 44.5045ZM2.58064 3.87109C2.58064 3.1587 3.1587 2.58064 3.87082 2.58064H41.2902C42.0023 2.58064 42.5806 3.1587 42.5806 3.87219L42.5845 10.3225H2.58064V3.87109ZM41.2902 77.4191H22.5805H3.87109C3.15897 77.4191 2.58091 76.841 2.58091 76.1286V68.3867H22.5808H42.5806V76.1286C42.5804 76.841 42.0023 77.4191 41.2902 77.4191ZM42.5804 65.8064H2.58064V12.9032H42.587L42.6076 45.1613H34.8387V42.5806H16.7743V59.3549H34.8387V57.0581L39.76 58.04L42.5806 58.0438V65.8064H42.5804ZM32.2581 45.1613V56.7743H19.3549V45.1613H32.2581ZM75.503 49.894L69.2863 52.961L56.6746 55.4835H40.1547L34.8387 54.4254V47.7416H44.2889L48.3497 45.0346L58.7818 41.3741C59.1471 41.2464 59.5393 41.2723 59.8837 41.4476C60.2294 41.6233 60.481 41.9238 60.5933 42.2941C60.7869 42.9355 60.4992 43.6283 59.9068 43.9432L52.6965 47.7769L57.7867 50.3225H70.0345L74.4668 47.9007C74.7429 47.7485 75.0603 47.7174 75.3598 47.8206C75.659 47.92 75.898 48.1342 76.0282 48.4218C76.2798 48.9779 76.0488 49.6245 75.503 49.894Z" fill="black"/>
<path d="M55.483 10.9678C55.483 6.34327 59.2456 2.58064 63.8701 2.58064C68.4946 2.58064 72.2572 6.34327 72.2572 10.9678V15.4838H74.8379V10.9678C74.8379 4.91986 69.9177 0 63.8701 0C57.8225 0 52.9023 4.91986 52.9023 10.9678V15.4838H55.483V10.9678Z" fill="black"/>
</svg>
