<svg width="80" height="80" viewBox="0 0 80 80" fill="none" xmlns="http://www.w3.org/2000/svg">
<path d="M36.1282 12.8979L21.9347 9.03225L18.4469 11.9328C17.3515 10.2902 16.7734 8.37927 16.7734 6.40645V3.22575C16.7734 1.44643 18.2199 0 19.9992 0C21.7785 0 23.2249 1.44643 23.2249 3.22575V4.51599C23.2249 4.87074 23.5152 5.16125 23.8702 5.16125C24.2252 5.16125 24.5154 4.871 24.5154 4.51599V3.22575C24.5154 1.44643 25.9619 0 27.7412 0C29.5205 0 30.9669 1.44643 30.9669 3.22575V4.51599C30.9669 4.87074 31.2572 5.16125 31.6122 5.16125C31.9672 5.16125 32.2575 4.871 32.2575 4.51599V3.22575C32.2575 1.44643 33.7039 0 35.4832 0C37.2625 0 38.7089 1.44643 38.7089 3.22575V6.40645C38.7089 8.37927 38.1309 10.2916 37.0354 11.9328L36.1282 12.8979Z" fill="#323D78"/>
<path d="M15.7884 32.2534L13.2076 30.9631H9.03225V11.6084H0V36.1244H9.03225V33.5436H12.5986L15.1794 34.8339H16.7743V32.2531L15.7884 32.2534ZM6.45149 33.5439H2.58076V14.1889H6.45176V33.5439H6.45149Z" fill="black"/>
<path d="M28.3967 60.6449C28.1633 60.6449 27.9309 60.6409 27.696 60.6308C18.9863 60.2798 11.7723 52.8979 11.6161 44.1767C11.5348 39.6785 13.2187 35.4245 16.3554 32.1998C19.122 29.3547 20.6457 25.8051 20.6457 22.2076L27.0972 18.0645L29.6779 20.6452V33.5431H38.7102L40.2211 31.9896C43.4082 35.1585 45.1617 39.3766 45.1617 43.871C45.1617 48.48 43.3306 52.7769 40.0055 55.9704C36.8522 58.9997 32.7518 60.6449 28.3967 60.6449Z" fill="#323D78"/>
<path d="M34.8371 41.285V40.645C34.8371 38.1546 32.8113 36.1237 30.3209 36.1237H29.6756V33.543H27.0948V36.1237H26.4496C23.9592 36.1237 21.9336 38.1496 21.9336 40.6397C21.9336 43.1301 23.9594 45.156 26.4496 45.156H30.3206C31.3878 45.156 32.2561 46.0243 32.2561 47.0915C32.2561 48.1586 31.3878 49.027 30.3206 49.027H26.4499C25.3827 49.027 24.5144 48.1637 24.5144 47.0965V46.4462H21.9336V47.0965C21.9336 49.5869 23.9594 51.6075 26.4496 51.6075H27.0948V54.1882H29.6756V51.6075H30.3209C32.8113 51.6075 34.8371 49.5816 34.8371 47.0915C34.8371 44.6011 32.8113 42.5752 30.3209 42.5752H26.4499C25.3827 42.5752 24.5144 41.7069 24.5144 40.6397C24.5144 39.5726 25.3827 38.7042 26.4499 38.7042H30.3209C31.388 38.7042 32.2564 39.5779 32.2564 40.6448V41.2847L34.8371 41.285Z" fill="white"/>
<path d="M40.2831 18.0648C40.9025 17.3782 41.2895 16.4763 41.2895 15.4816C41.2895 13.3476 39.5528 11.608 37.4184 11.608H32.6159L31.7178 10.4854L21.6341 7.60156L13.7258 14.1885H7.74121V16.7692H14.6599L22.2367 10.4582L30.2172 12.7394L32.932 16.1317C33.2908 16.5808 33.4494 17.1434 33.3771 17.7135C33.3049 18.2839 33.0107 18.7897 32.5501 19.1341C31.7178 19.7586 30.5347 19.6746 29.7966 18.9379L27.1927 16.334L19.8393 22.217L21.451 24.2324L27.0005 19.7924L27.971 20.7639C28.113 20.9059 28.2716 21.0219 28.4278 21.1418C28.5219 22.0837 28.8651 22.6373 29.3929 23.2218C28.7735 23.9083 28.3865 24.8089 28.3865 25.8036C28.3865 26.7983 28.7748 27.6991 29.3929 28.3844C28.7735 29.0709 28.3865 29.9675 28.3865 30.9624C28.3865 33.0992 30.1231 34.8334 32.2575 34.8334H37.4187C39.5528 34.8334 41.2897 33.0992 41.2897 30.9651C41.2897 29.9702 40.9014 29.0723 40.2833 28.3857C40.9027 27.6991 41.2897 26.8012 41.2897 25.8049C41.2897 24.8089 40.9014 23.9107 40.2833 23.2242C40.9027 22.5376 41.2897 21.6383 41.2897 20.6434C41.2895 19.6493 40.9011 18.7511 40.2831 18.0648ZM37.4184 32.253H32.2572C31.5461 32.253 30.967 31.6735 30.967 30.9627C30.967 30.2516 31.5464 29.6725 32.2572 29.6725H37.4184C38.1295 29.6725 38.7087 30.2519 38.7087 30.9627C38.709 31.6738 38.1295 32.253 37.4184 32.253ZM37.4184 27.0917H32.2572C31.5461 27.0917 30.967 26.5123 30.967 25.8015C30.967 25.0904 31.5464 24.5112 32.2572 24.5112H37.4184C38.1295 24.5112 38.7087 25.0906 38.7087 25.8015C38.709 26.5126 38.1295 27.0917 37.4184 27.0917ZM37.4184 21.9305H32.6378C33.1527 21.7769 33.6495 21.5368 34.0984 21.2002C34.7487 20.7124 35.2287 20.0712 35.5488 19.35H37.4184C38.1295 19.35 38.7087 19.9294 38.7087 20.6402C38.7087 21.351 38.1295 21.9305 37.4184 21.9305ZM37.4184 16.7692H35.9049C35.7863 15.9563 35.4752 15.1821 34.9462 14.5203L34.6804 14.1887H37.4184C38.1295 14.1887 38.7087 14.7681 38.7087 15.479C38.709 16.1898 38.1295 16.7692 37.4184 16.7692Z" fill="black"/>
<path d="M70.9679 60.6402V64.5112H62.3267L58.7808 62.1474L47.9061 58.2905C46.8712 57.9267 45.7603 58.0002 44.7822 58.497C43.8027 58.9939 43.0892 59.8454 42.7704 60.8958C42.2195 62.7137 43.0375 64.6815 44.715 65.5719L47.5084 67.0557L43.4466 67.0685L41.7768 62.8931C41.2273 61.5253 39.92 60.6402 38.4439 60.6402C37.2918 60.6402 36.2027 61.2001 35.5303 62.1343C34.8581 63.0711 34.6761 64.2814 35.0439 65.3731L35.4349 66.5317L32.6039 64.9845C31.7033 64.4904 30.627 64.395 29.6529 64.7239C28.6788 65.049 27.8773 65.7729 27.4541 66.7084C26.6257 68.5381 27.3882 70.6684 29.1897 71.5576L35.5588 74.7007L48.7795 77.3897L65.9343 77.4142L70.9679 76.4078V79.9949H80.0002V60.6402H70.9679ZM37.626 63.6402C38.0596 63.0362 39.1047 63.1642 39.3794 63.8531L40.6697 67.0775L38.3445 67.0853L37.4903 64.5485C37.3858 64.2375 37.4349 63.9072 37.626 63.6402ZM65.6788 74.8337H49.1601L36.5484 72.311L30.3317 69.2439C29.7859 68.9741 29.5538 68.3278 29.8054 67.7716C29.9357 67.4837 30.1718 67.2697 30.4725 67.1703C30.7704 67.0672 31.0905 67.0967 31.368 67.2503L35.8003 69.6722H48.0468L53.1385 67.1263L45.9269 63.2929C45.336 62.9781 45.0468 62.2852 45.2403 61.6439C45.3525 61.2737 45.6041 60.9717 45.9501 60.7974C46.2947 60.6207 46.6867 60.5975 47.0519 60.7239L57.4855 64.3846L61.545 67.0917H70.9682V73.7756L65.6788 74.8337ZM77.4194 77.4142H73.5484V63.2207H77.4194V77.4142Z" fill="black"/>
</svg>
