<svg width="80" height="80" viewBox="0 0 80 80" fill="none" xmlns="http://www.w3.org/2000/svg">
<path d="M30.9666 56.7745H5.16016V34.8389H30.9666V56.7745Z" fill="#323D78"/>
<path d="M67.0968 34.8388V32.2582C67.0968 28.7009 64.2026 25.8065 60.6453 25.8065H51.6129V20.6452V19.3547V9.03212H38.7097V6.45148C38.7097 2.89418 35.8155 0 32.2582 0H19.355C15.7974 0 12.9032 2.89418 12.9032 6.45175V9.0324H0V19.355V20.6452V72.2581H28.3871V80H80V46.4516V45.1612V34.8386H67.0968V34.8388ZM75.0308 37.4195L70.1922 41.2903L75.0308 45.1614H66.9649C66.3648 42.2207 63.7597 40.0001 60.6437 40.0001H47.7418C44.6269 40.0001 42.0206 42.2207 41.4205 45.1614H33.3546L38.1936 41.2903L33.3549 37.4192H41.2903H43.871H64.5161H67.0968H75.0308V37.4195ZM77.4194 38.8129V43.7664L74.3237 41.2903L77.4194 38.8129ZM67.0968 54.1936C67.0968 54.9046 66.5173 55.484 65.8063 55.484C65.0953 55.484 64.5161 54.9046 64.5161 54.1936C64.5161 53.4825 65.0956 52.9031 65.8063 52.9031C66.5173 52.9034 67.0968 53.4825 67.0968 54.1936ZM64.2786 45.1614H44.1082C44.6425 43.6634 46.0618 42.5808 47.7418 42.5808H60.645C62.325 42.5808 63.7445 43.6631 64.2786 45.1614ZM43.871 54.1936C43.871 54.9046 43.2915 55.484 42.5808 55.484C41.8698 55.484 41.2903 54.9046 41.2903 54.1936C41.2903 53.4825 41.8698 52.9031 42.5808 52.9031C43.2915 52.9034 43.871 53.4825 43.871 54.1936ZM34.0631 41.2903L30.9677 43.7677V38.8129L34.0631 41.2903ZM43.871 34.8388V32.2582C43.871 30.124 45.6076 28.3871 47.7418 28.3871H49.032V34.8388H43.871ZM60.645 28.3871C62.7792 28.3871 64.5159 30.1238 64.5159 32.2582V34.8388H51.6129V28.3871H60.645ZM49.0323 17.9613L45.9369 15.4839L49.0323 13.0065V17.9613ZM15.4839 6.45175C15.4839 4.31759 17.2205 2.58065 19.3547 2.58065H32.2579C34.3921 2.58065 36.1288 4.31732 36.1288 6.45175V9.0324H15.4836V6.45175H15.4839ZM15.4839 11.613H36.129H38.7097H46.6437L41.8051 15.4839L46.6437 19.355H38.5778C37.9777 16.4143 35.3726 14.1937 32.2565 14.1937H19.3547C16.2398 14.1937 13.6335 16.4143 13.0334 19.355H4.96915L9.80783 15.4839L4.96915 11.613H12.9032H15.4839ZM38.7097 28.3871C38.7097 29.0981 38.1302 29.6776 37.4192 29.6776C36.7082 29.6776 36.129 29.0981 36.129 28.3871C36.129 27.6761 36.7085 27.0966 37.4192 27.0966C38.13 27.0966 38.7097 27.6761 38.7097 28.3871ZM35.8918 19.355H15.7214C16.2557 17.857 17.675 16.7743 19.355 16.7743H32.2582C33.9382 16.7743 35.3575 17.8567 35.8918 19.355ZM15.4839 28.3871C15.4839 29.0981 14.9044 29.6776 14.1937 29.6776C13.4829 29.6776 12.9035 29.0981 12.9035 28.3871C12.9035 27.6761 13.4829 27.0966 14.1937 27.0966C14.9044 27.0966 15.4839 27.6761 15.4839 28.3871ZM5.67632 15.4839L2.58092 17.9613V13.0065L5.67632 15.4839ZM2.58065 69.6774V21.9356H12.9032V24.7538C11.4052 25.2881 10.3226 26.7074 10.3226 28.3874C10.3226 30.5215 12.0593 32.2585 14.1934 32.2585C16.3276 32.2585 18.0642 30.5218 18.0642 28.3874C18.0642 26.7074 16.9816 25.2881 15.4836 24.7538V21.9356H36.1288V24.7538C34.6307 25.2881 33.5481 26.7074 33.5481 28.3874C33.5481 30.5215 35.2848 32.2585 37.4189 32.2585C39.5531 32.2585 41.2903 30.5213 41.2903 28.3871C41.2903 26.7071 40.2077 25.2878 38.7097 24.7535V21.9356H49.0323V25.8065H47.7421C44.1848 25.8065 41.2906 28.7006 41.2906 32.2582V34.8388H28.3874V45.1614V46.4519V69.6777H2.58065V69.6774ZM77.4194 77.4194H30.9677V47.7421H41.2903V50.56C39.7923 51.0943 38.7097 52.5136 38.7097 54.1936C38.7097 56.3277 40.4464 58.0647 42.5805 58.0647C44.7147 58.0647 46.4513 56.328 46.4513 54.1936C46.4513 52.5136 45.3687 51.0943 43.8707 50.56V47.7421H64.5159V50.56C63.0178 51.0943 61.9352 52.5136 61.9352 54.1936C61.9352 56.3277 63.6719 58.0647 65.806 58.0647C67.9402 58.0647 69.6769 56.328 69.6769 54.1936C69.6769 52.5136 68.5942 51.0943 67.0962 50.56V47.7421H77.4188V77.4194H77.4194Z" fill="black"/>
</svg>
