<svg width="80" height="80" viewBox="0 0 80 80" fill="none" xmlns="http://www.w3.org/2000/svg">
<path d="M19.7325 38.75H7.5V45H20C20 42.7275 19.895 40.6662 19.7325 38.75Z" fill="#323D78"/>
<path d="M60.2675 38.75C60.105 40.6662 60 42.7275 60 45H73.75V38.75H60.2675Z" fill="#323D78"/>
<path d="M25 2.5C25 2.5 31.25 12.5 40 12.5C48.75 12.5 55 2.5 55 2.5V7.5L54.5262 8.965C53.89 9.8875 48.3775 17.5 40 17.5C31.6213 17.5 26.11 9.88625 25.4737 8.965L25 7.5V2.5Z" fill="#323D78"/>
<path d="M24.3602 65.8107C22.3552 63.1232 20.4615 60.5832 18.3665 58.777L17.9015 58.377C17.1602 61.242 16.3365 64.062 15.6152 66.762C16.5752 67.9257 17.539 69.2107 18.3502 70.297C20.0902 72.6282 22.0527 75.2157 24.3252 77.4995H37.5002C32.149 77.4995 28.1902 70.9432 24.3602 65.8107Z" fill="#323D78"/>
<path d="M73.75 22.5588C73.75 16.7625 70.0825 11.5588 64.6238 9.61125L56.2 6.6025L56.25 1.25H23.75V6.62L15.3762 9.61125C9.9175 11.5588 6.25 16.7625 6.25 22.5588V46.25H18.7063C18.4875 51.6862 16.9175 57.3825 15.3775 62.9062C13.8975 68.215 12.5 73.2288 12.5 77.5V78.75H67.5V77.5C67.5 73.2288 66.1025 68.215 64.6225 62.9062C63.0825 57.3813 61.5125 51.6862 61.2938 46.25H73.75V22.5588ZM40 16.25C32.5875 16.25 27.5312 9.6975 26.605 8.40125L26.25 7.30375V6.20875C28.9525 9.34 33.8425 13.75 40 13.75C46.1575 13.75 51.0475 9.34 53.75 6.20875V7.30375L53.395 8.40125C52.47 9.69625 47.42 16.25 40 16.25ZM50.2675 6.25H29.7412C28.8262 5.35625 28.0613 4.48625 27.4688 3.75H52.535C51.9437 4.48625 51.18 5.35625 50.2675 6.25ZM47.2375 8.75C45.1562 10.17 42.7012 11.25 40 11.25C37.3075 11.25 34.8538 10.17 32.7725 8.75H47.2375ZM71.25 43.75H61.2687C61.3638 38.2687 62.0525 33.9513 62.6712 30.1238C63.2262 26.7025 63.75 23.4713 63.75 20H61.25C61.25 23.27 60.765 26.2612 60.205 29.7237C59.5225 33.9338 58.75 38.7062 58.75 45C58.75 51.1488 60.5112 57.4675 62.2137 63.5775C63.4975 68.185 64.7188 72.5625 64.9562 76.25H15.0425C15.28 72.5625 16.5012 68.185 17.785 63.5775C19.4887 57.4675 21.25 51.1488 21.25 45C21.25 38.7062 20.4775 33.9338 19.795 29.7237C19.235 26.2612 18.75 23.27 18.75 20H16.25C16.25 23.4713 16.7738 26.7025 17.3275 30.1238C17.9475 33.9513 18.6363 38.27 18.73 43.75H8.75V22.5588C8.75 17.8163 11.75 13.5588 16.2162 11.9637L24.215 9.10625L24.285 9.34875L24.445 9.675C25.0562 10.56 30.4325 17.9813 38.75 18.68V41.25H41.25V18.6812C49.5762 17.9825 54.9463 10.56 55.555 9.675L55.7587 9.09875L63.7838 11.965C68.25 13.5587 71.25 17.8163 71.25 22.5588V43.75Z" fill="black"/>
<path d="M24.6684 28.5449L22.2021 28.9549L22.2621 29.3249C22.9596 33.6274 23.7497 38.5062 23.7497 44.9999V46.2499H26.2497V44.9999C26.2497 38.3049 25.4422 33.3212 24.7297 28.9199L24.6684 28.5449Z" fill="black"/>
<path d="M53.75 45C53.75 51.8313 55.6875 58.7838 57.3987 64.9225L57.86 66.5813L60.27 65.92L59.8063 64.2475C58.1388 58.2663 56.25 51.4888 56.25 45H53.75Z" fill="black"/>
<path d="M59.1405 71.5318L61.5768 70.9706C61.388 70.148 61.1755 69.3005 60.9493 68.4355L58.5293 69.068C58.7518 69.9081 58.9568 70.7305 59.1405 71.5318Z" fill="black"/>
<path d="M43.75 26.25H46.25V28.75H43.75V26.25Z" fill="black"/>
<path d="M43.75 21.25H46.25V23.75H43.75V21.25Z" fill="black"/>
<path d="M43.75 36.25H46.25V38.75H43.75V36.25Z" fill="black"/>
<path d="M43.75 31.25H46.25V33.75H43.75V31.25Z" fill="black"/>
</svg>
