<svg width="81" height="80" viewBox="0 0 81 80" fill="none" xmlns="http://www.w3.org/2000/svg">
<g clip-path="url(#clip0)">
<path d="M75.3387 32.2577H80.5V24.5158H76.3465L75.056 19.3545H5.94399L4.65381 24.5158H0.5V32.2577H5.66129V46.4514V52.9032V70.9677H0.5V78.7096H80.5V70.9677H75.3387V53.8336L76.7283 54.2968L80.5 52.4104V47.3292L75.2652 40.0002H75.3387V32.2577ZM7.95923 21.9351H73.0405L73.6857 24.5158H7.31428L7.95923 21.9351ZM3.08065 29.6771V27.0964H4.0083H76.9914H77.9191V29.6771H75.3384H72.7581H8.24194H5.66129H3.08065ZM72.7581 32.2577V37.419H35.3386H33.3335H8.24194V32.2577H72.7581ZM71.4676 50.6837L68.887 51.5444L66.3063 50.6837V48.7986L63.0069 39.9999H66.7993L71.4676 49.3368V50.6837ZM28.8871 70.9674V53.7003L30.0782 54.2966L32.7582 53.4025V70.9677H28.8871V70.9674ZM28.8871 49.4023L34.7633 39.9997H35.3388H37.122L32.7582 48.7273V50.6834L30.2769 51.5106L28.8874 50.815V50.322V49.4023H28.8871ZM26.3065 50.3222H12.1128H8.24194V49.0318H26.3065V50.3222ZM14.6934 52.9029H26.3065V70.9674H14.6934V52.9029ZM35.3386 49.3365L40.0069 39.9997H43.7992L40.4999 48.797V50.682L37.9192 51.5428L35.3386 50.682V49.3365ZM60.2509 39.9997L63.7257 49.2669V50.6837L61.145 51.5444L58.5644 50.6837V49.0321L57.4443 39.9997H60.2509ZM54.8444 39.9997L55.9837 49.1133V50.6837L53.4031 51.5444L50.8224 50.6837V49.1133L51.9618 39.9997H54.8444ZM48.2523 48.8721L48.2459 50.6826L45.6614 51.5433L43.0808 50.6826V49.2658L46.5555 39.9999H49.3608L48.2523 48.8721ZM41.7903 52.9725L45.6612 54.263L49.532 52.9725L53.4028 54.263L57.2736 52.9725L61.1445 54.263L65.0153 52.9725L66.3055 53.4022V64.5156H41.7903V52.9725ZM8.24194 39.9997H31.7207L27.6883 46.4514H8.24194V39.9997ZM8.24194 52.9029H12.1128V70.9674H8.24194V52.9029ZM77.9194 76.1287H3.08065V73.548H5.66129H8.24194H12.1128H28.8868H77.9194V76.1287ZM72.7581 70.9674H35.3386V53.4022L37.9192 54.263L39.2094 53.8333V67.0966H68.8867V54.263L72.7575 52.9725V70.9674H72.7581ZM77.9194 50.8152L76.5298 51.5095L74.0485 50.6823V48.7262L69.6847 39.9997H72.0938L77.9196 48.1545V50.8152H77.9194Z" fill="black"/>
<path d="M68.8855 21.9359H12.1113V5.16185C12.1113 3.02769 13.848 1.29102 15.9822 1.29102H65.0144C67.1486 1.29102 68.8853 3.02769 68.8853 5.16185V21.9359H68.8855Z" fill="#323D78"/>
<path d="M22.4345 15.484H21.1443C20.4332 15.484 19.8541 14.9045 19.8541 14.1935H17.2734C17.2734 16.3277 19.0101 18.0644 21.1443 18.0644H22.4345C24.5686 18.0644 26.3053 16.3277 26.3053 14.1935C26.3053 12.0594 24.5686 10.3227 22.4345 10.3227H21.1443C20.4332 10.3227 19.8541 9.74326 19.8541 9.03224C19.8541 8.32122 20.4335 7.74178 21.1443 7.74178H22.4345C23.1455 7.74178 23.7246 8.32122 23.7246 9.03224H26.3053C26.3053 6.89808 24.5686 5.16113 22.4345 5.16113H21.1443C19.0101 5.16113 17.2734 6.8978 17.2734 9.03224C17.2734 11.1667 19.0101 12.9033 21.1443 12.9033H22.4345C23.1455 12.9033 23.7246 13.4828 23.7246 14.1938C23.7249 14.9045 23.1455 15.484 22.4345 15.484Z" fill="white"/>
<path d="M31.4693 12.904H36.6306V18.0653H39.2113V5.16211H36.6306V10.3234H31.4693V5.16211H28.8887V18.0653H31.4693V12.904Z" fill="white"/>
<path d="M46.9523 18.0653C49.7988 18.0653 52.1136 15.7506 52.1136 12.904V10.3234C52.1136 7.47685 49.7988 5.16211 46.9523 5.16211C44.1057 5.16211 41.791 7.47685 41.791 10.3234V12.904C41.791 15.7503 44.1057 18.0653 46.9523 18.0653ZM44.3717 10.3234C44.3717 8.90026 45.5292 7.74276 46.9523 7.74276C48.3754 7.74276 49.5329 8.90026 49.5329 10.3234V12.904C49.5329 14.3272 48.3754 15.4847 46.9523 15.4847C45.5292 15.4847 44.3717 14.3272 44.3717 12.904V10.3234Z" fill="white"/>
<path d="M57.274 12.9033H59.8547C61.9888 12.9033 63.7255 11.1667 63.7255 9.03224C63.7255 6.8978 61.9888 5.16113 59.8547 5.16113H54.6934V18.0644H57.274V12.9033ZM57.274 7.74205H59.8547C60.5657 7.74205 61.1448 8.32149 61.1448 9.03251C61.1448 9.74353 60.5654 10.323 59.8547 10.323H57.274V7.74205Z" fill="white"/>
</g>
<defs>
<clipPath id="clip0">
<rect width="80" height="80" fill="white" transform="translate(0.5)"/>
</clipPath>
</defs>
</svg>
